<svg width="206" height="104" viewBox="0 0 206 104" fill="none" xmlns="http://www.w3.org/2000/svg">
<path d="M85.428 62.4V75H84.132V63.552H81.162V62.4H85.428ZM92.2148 69.654H110.215V70.572H92.2148V69.654ZM126.572 71.688H124.052V75H122.756V71.688H115.646V70.752L122.324 62.4H123.764L117.32 70.536H122.792V67.62H124.052V70.536H126.572V71.688Z" fill="black"/>
<rect y="34" width="70" height="70" fill="white"/>
<line x1="26.2929" y1="84.2929" x2="42.2929" y2="68.2929" stroke="black" stroke-width="2"/>
<line y1="-1" x2="22.6274" y2="-1" transform="matrix(0.707107 0.707107 0.707107 -0.707107 27 53)" stroke="black" stroke-width="2"/>
<path d="M107.346 21.3734C108.059 21.3734 108.756 21.1619 109.349 20.7658C109.942 20.3697 110.404 19.8066 110.677 19.1479C110.949 18.4891 111.021 17.7642 110.882 17.0649C110.743 16.3656 110.399 15.7232 109.895 15.219C109.391 14.7148 108.749 14.3715 108.049 14.2324C107.35 14.0933 106.625 14.1646 105.966 14.4375C105.307 14.7104 104.744 15.1725 104.348 15.7653C103.952 16.3582 103.741 17.0552 103.741 17.7682C103.741 18.7244 104.121 19.6414 104.797 20.3175C105.473 20.9936 106.39 21.3734 107.346 21.3734ZM107.346 15.8798C107.719 15.8798 108.084 15.9906 108.395 16.1981C108.706 16.4056 108.948 16.7005 109.091 17.0456C109.233 17.3906 109.271 17.7703 109.198 18.1366C109.125 18.503 108.945 18.8394 108.681 19.1035C108.417 19.3676 108.081 19.5475 107.714 19.6204C107.348 19.6932 106.968 19.6558 106.623 19.5129C106.278 19.37 105.983 19.1279 105.776 18.8174C105.568 18.5068 105.457 18.1417 105.457 17.7682C105.457 17.2674 105.656 16.7871 106.011 16.4329C106.365 16.0788 106.845 15.8798 107.346 15.8798Z" fill="black"/>
<path fill-rule="evenodd" clip-rule="evenodd" d="M94.5708 0H125V24.4206H120.193V29.1845H115.429V33.9914H85V9.57082H89.8069V4.80687H94.5708V0ZM115.429 27.5107H118.476V6.5236H91.5236V9.57082H115.429V27.5107ZM120.193 22.7039H123.283V1.71674H96.2876V4.80687H120.193V22.7039ZM113.755 11.3019H86.7166V32.3319H113.755V11.3019Z" fill="black"/>
<rect x="89.1489" y="21.3162" width="1.71674" height="8.44063" fill="black"/>
<rect x="99.02" y="21.3162" width="1.71674" height="8.44063" fill="black"/>
<rect x="102.024" y="21.3162" width="1.71674" height="8.44063" fill="black"/>
<rect x="99.02" y="28.0403" width="1.71674" height="8.44063" transform="rotate(90 99.02 28.0403)" fill="black"/>
<rect x="103.598" y="28.0403" width="1.71674" height="8.44063" transform="rotate(90 103.598 28.0403)" fill="black"/>
<rect x="103.598" y="21.3162" width="1.71674" height="8.44063" transform="rotate(90 103.598 21.3162)" fill="black"/>
<rect x="99.02" y="21.3162" width="1.71674" height="8.44063" transform="rotate(90 99.02 21.3162)" fill="black"/>
<rect x="94.9048" y="15.52" width="1.71674" height="8.14026" transform="rotate(45 94.9048 15.52)" fill="black"/>
<rect width="1.71674" height="8.21154" transform="matrix(-0.707113 0.707101 0.707113 0.707101 94.9595 15.4697)" fill="black"/>
</svg>
